<svg id="Capa_1" enable-background="new 0 0 512 512" height="512" viewBox="0 0 512 512" width="512" xmlns="http://www.w3.org/2000/svg" xmlns:xlink="http://www.w3.org/1999/xlink"><linearGradient id="SVGID_1_" gradientUnits="userSpaceOnUse" x1="256" x2="256" y1="496.008" y2="15.992"><stop offset="0" stop-color="#a93aff"/><stop offset="1" stop-color="#ff81ff"/></linearGradient><g><g><path d="m437 15.992h-362c-41.355 0-75 33.645-75 75v390c0 13.32 16.168 20.046 25.606 10.606l85.607-85.606h325.787c41.355 0 75-33.645 75-75v-240c0-41.355-33.645-75-75-75zm45 315c0 24.813-20.187 45-45 45h-332c-3.978 0-7.793 1.581-10.606 4.394l-64.394 64.392v-353.786c0-24.813 20.187-45 45-45h362c24.813 0 45 20.187 45 45zm-166-195c0-33.084-26.916-60-60-60s-60 26.916-60 60 26.916 60 60 60 60-26.916 60-60zm-60 30c-16.542 0-30-13.458-30-30s13.458-30 30-30 30 13.458 30 30-13.458 30-30 30zm0 30c-57.897 0-105 47.103-105 105v30c0 8.284 6.716 15 15 15h180c8.284 0 15-6.716 15-15v-30c0-57.898-47.103-105-105-105zm75 120h-150v-15c0-41.355 33.645-75 75-75s75 33.645 75 75z" fill="url(#SVGID_1_)"/></g></g></svg>